# xmcd
#
# Track frame offsets: 
#        182
#        13277
#        26027
#        33075
#        42237
#        52785
#        65882
#        76170
#        87485
#        98040
#        108425
#        120162
#        133730
#        145935
#        155465
#
# Disc length: 2217 seconds
#
# Revision: 0
# Processed by: cddbd v1.5.2PL0 Copyright (c) Steve Scherf et al.
# Submitted via: ExactAudioCopy v0.99pb5
#
DISCID=bf08a70f
DTITLE=Greatest Hits - Faron Young
DYEAR=1900
DGENRE=Country
TTITLE0=Four in the morning
TTITLE1=Seasons come, seasongs go
TTITLE2=Alone with you
TTITLE3=A heartache for a keepsake
TTITLE4=If you ain't lovin'
TTITLE5=apartment 9
TTITLE6=Live fast, love hard and die young
TTITLE7=your cheating heart
TTITLE8=satisfied mind
TTITLE9=As far as i#m concerned
TTITLE10=Is it really over
TTITLE11=chapel in the moonlight
TTITLE12=sweet dreams
TTITLE13=some of those memories
TTITLE14=Wine me up
EXTD=
EXTT0=
EXTT1=
EXTT2=
EXTT3=
EXTT4=
EXTT5=
EXTT6=
EXTT7=
EXTT8=
EXTT9=
EXTT10=
EXTT11=
EXTT12=
EXTT13=
EXTT14=
PLAYORDER=
